<svg width="24" height="24" viewBox="0 0 24 24" fill="none" xmlns="http://www.w3.org/2000/svg">
<path d="M19 4H5C3.89543 4 3 4.89543 3 6V20C3 21.1046 3.89543 22 5 22H19C20.1046 22 21 21.1046 21 20V6C21 4.89543 20.1046 4 19 4Z" stroke="#72706F" stroke-width="1.5" stroke-linecap="round" stroke-linejoin="round"/>
<path d="M8 2V6M16 2V6" stroke="#72706F" stroke-width="1.5" stroke-linecap="round" stroke-linejoin="round"/>
<path d="M3 10H21" stroke="#72706F" stroke-width="1.5" stroke-linecap="round" stroke-linejoin="round"/>
<path d="M3 14H21" stroke="#72706F" stroke-width="1.5" stroke-linecap="round" stroke-linejoin="round"/>
<path d="M3 18H21" stroke="#72706F" stroke-width="1.5" stroke-linecap="round" stroke-linejoin="round"/>
<path d="M19 12H5C4.44772 12 4 12.4477 4 13V15C4 15.5523 4.44772 16 5 16H19C19.5523 16 20 15.5523 20 15V13C20 12.4477 19.5523 12 19 12Z" stroke="#72706F" stroke-width="1.5" stroke-linecap="round" stroke-linejoin="round"/>
</svg>
