<svg width="24" height="24" viewBox="0 0 24 24" fill="none" xmlns="http://www.w3.org/2000/svg">
<path fill-rule="evenodd" clip-rule="evenodd" d="M5.99722 10.956C5.99722 10.649 6.06322 10.339 6.19922 10.05C6.50522 9.402 7.11222 9 7.78522 9L16.2112 9C16.8842 9 17.4912 9.402 17.7972 10.05C18.1422 10.782 18.0412 11.65 17.5382 12.259L13.3242 17.358C12.9882 17.767 12.5042 18 11.9982 18C11.4922 18 11.0082 17.767 10.6722 17.358L6.45922 12.259C6.15422 11.891 5.99722 11.427 5.99722 10.956Z" fill="#72706F"/>
<mask id="mask0_357_2708" style="mask-type:luminance" maskUnits="userSpaceOnUse" x="5" y="9" width="13" height="9">
<path fill-rule="evenodd" clip-rule="evenodd" d="M5.99722 10.956C5.99722 10.649 6.06322 10.339 6.19922 10.05C6.50522 9.402 7.11222 9 7.78522 9L16.2112 9C16.8842 9 17.4912 9.402 17.7972 10.05C18.1422 10.782 18.0412 11.65 17.5382 12.259L13.3242 17.358C12.9882 17.767 12.5042 18 11.9982 18C11.4922 18 11.0082 17.767 10.6722 17.358L6.45922 12.259C6.15422 11.891 5.99722 11.427 5.99722 10.956Z" fill="white"/>
</mask>
<g mask="url(#mask0_357_2708)">
<rect x="24" width="24" height="24" transform="rotate(90 24 0)" fill="#72706F"/>
</g>
</svg>
