<svg width="15" height="15" viewBox="0 0 15 15" fill="none" xmlns="http://www.w3.org/2000/svg">
<path d="M15 7.5C15 7.66576 14.9342 7.82473 14.8169 7.94194C14.6997 8.05915 14.5408 8.125 14.375 8.125C14.2092 8.125 14.0503 8.05915 13.9331 7.94194C13.8158 7.82473 13.75 7.66576 13.75 7.5C13.7482 5.84296 13.0891 4.2543 11.9174 3.08259C10.7457 1.91088 9.15704 1.25182 7.5 1.25C7.33424 1.25 7.17527 1.18415 7.05806 1.06694C6.94085 0.949732 6.875 0.79076 6.875 0.625C6.875 0.45924 6.94085 0.300269 7.05806 0.183058C7.17527 0.065848 7.33424 0 7.5 0C9.48846 0.00215068 11.3949 0.793018 12.8009 2.19907C14.207 3.60513 14.9978 5.51154 15 7.5ZM10 8.125C10.1658 8.125 10.3247 8.05915 10.4419 7.94194C10.5592 7.82473 10.625 7.66576 10.625 7.5C10.625 7.33424 10.5592 7.17527 10.4419 7.05806C10.3247 6.94085 10.1658 6.875 10 6.875H8.57687C8.46795 6.68777 8.31223 6.53205 8.125 6.42313V4.375C8.125 4.20924 8.05915 4.05027 7.94194 3.93306C7.82473 3.81585 7.66576 3.75 7.5 3.75C7.33424 3.75 7.17527 3.81585 7.05806 3.93306C6.94085 4.05027 6.875 4.20924 6.875 4.375V6.42313C6.70923 6.51857 6.56766 6.6509 6.46125 6.80985C6.35484 6.9688 6.28645 7.15012 6.26137 7.33975C6.23629 7.52938 6.2552 7.72224 6.31664 7.90339C6.37807 8.08453 6.48037 8.24911 6.61563 8.38437C6.75089 8.51963 6.91547 8.62193 7.09661 8.68336C7.27776 8.7448 7.47062 8.76371 7.66025 8.73863C7.84988 8.71355 8.0312 8.64516 8.19015 8.53875C8.3491 8.43234 8.48143 8.29077 8.57687 8.125H10ZM1.14188 4.24C1.01826 4.24 0.897425 4.27666 0.794644 4.34533C0.691863 4.41401 0.611755 4.51162 0.564451 4.62582C0.517146 4.74003 0.504769 4.86569 0.528884 4.98693C0.553 5.10817 0.612526 5.21953 0.699934 5.30694C0.787341 5.39435 0.898706 5.45387 1.01994 5.47799C1.14118 5.50211 1.26685 5.48973 1.38105 5.44242C1.49526 5.39512 1.59287 5.31501 1.66154 5.21223C1.73022 5.10945 1.76688 4.98861 1.76688 4.865C1.76688 4.69924 1.70103 4.54027 1.58382 4.42306C1.46661 4.30585 1.30764 4.24 1.14188 4.24ZM1.25 7.5C1.25 7.37639 1.21334 7.25555 1.14467 7.15277C1.07599 7.04999 0.978381 6.96988 0.864177 6.92257C0.749974 6.87527 0.624307 6.86289 0.503069 6.88701C0.381831 6.91112 0.270466 6.97065 0.183059 7.05806C0.0956507 7.14547 0.0361252 7.25683 0.0120095 7.37807C-0.0121063 7.49931 0.000270801 7.62497 0.0475756 7.73918C0.0948803 7.85338 0.174988 7.95099 0.277769 8.01967C0.38055 8.08834 0.501387 8.125 0.625 8.125C0.790761 8.125 0.949732 8.05915 1.06694 7.94194C1.18415 7.82473 1.25 7.66576 1.25 7.5ZM7.5 13.75C7.37639 13.75 7.25555 13.7867 7.15277 13.8553C7.04999 13.924 6.96988 14.0216 6.92257 14.1358C6.87527 14.25 6.86289 14.3757 6.88701 14.4969C6.91112 14.6182 6.97065 14.7295 7.05806 14.8169C7.14547 14.9044 7.25683 14.9639 7.37807 14.988C7.49931 15.0121 7.62497 14.9997 7.73918 14.9524C7.85338 14.9051 7.95099 14.825 8.01967 14.7222C8.08834 14.6195 8.125 14.4986 8.125 14.375C8.125 14.2092 8.05915 14.0503 7.94194 13.9331C7.82473 13.8158 7.66576 13.75 7.5 13.75ZM2.63813 2.00437C2.51451 2.00437 2.39367 2.04103 2.29089 2.10971C2.18811 2.17838 2.10801 2.27599 2.0607 2.3902C2.0134 2.5044 2.00102 2.63007 2.02513 2.75131C2.04925 2.87254 2.10878 2.98391 2.19618 3.07132C2.28359 3.15872 2.39496 3.21825 2.51619 3.24237C2.63743 3.26648 2.7631 3.2541 2.8773 3.2068C2.99151 3.15949 3.08912 3.07939 3.15779 2.97661C3.22647 2.87383 3.26313 2.75299 3.26313 2.62937C3.26313 2.46361 3.19728 2.30464 3.08007 2.18743C2.96286 2.07022 2.80389 2.00437 2.63813 2.00437ZM4.86188 0.525625C4.73826 0.525625 4.61742 0.562281 4.51464 0.630957C4.41186 0.699632 4.33176 0.797244 4.28445 0.911448C4.23715 1.02565 4.22477 1.15132 4.24888 1.27256C4.273 1.39379 4.33253 1.50516 4.41993 1.59257C4.50734 1.67997 4.61871 1.7395 4.73994 1.76362C4.86118 1.78773 4.98685 1.77535 5.10105 1.72805C5.21526 1.68074 5.31287 1.60064 5.38154 1.49786C5.45022 1.39508 5.48688 1.27424 5.48688 1.15062C5.48688 0.984865 5.42103 0.825894 5.30382 0.708683C5.18661 0.591473 5.02764 0.525625 4.86188 0.525625ZM1.14188 9.51C1.01826 9.51 0.897425 9.54666 0.794644 9.61533C0.691863 9.68401 0.611755 9.78162 0.564451 9.89582C0.517146 10.01 0.504769 10.1357 0.528884 10.2569C0.553 10.3782 0.612526 10.4895 0.699934 10.5769C0.787341 10.6643 0.898706 10.7239 1.01994 10.748C1.14118 10.7721 1.26685 10.7597 1.38105 10.7124C1.49526 10.6651 1.59287 10.585 1.66154 10.4822C1.73022 10.3795 1.76688 10.2586 1.76688 10.135C1.76688 9.96924 1.70103 9.81027 1.58382 9.69306C1.46661 9.57585 1.30764 9.51 1.14188 9.51ZM2.63813 11.7456C2.51451 11.7456 2.39367 11.7823 2.29089 11.851C2.18811 11.9196 2.10801 12.0172 2.0607 12.1314C2.0134 12.2457 2.00102 12.3713 2.02513 12.4926C2.04925 12.6138 2.10878 12.7252 2.19618 12.8126C2.28359 12.9 2.39496 12.9595 2.51619 12.9836C2.63743 13.0077 2.7631 12.9954 2.8773 12.948C2.99151 12.9007 3.08912 12.8206 3.15779 12.7179C3.22647 12.6151 3.26313 12.4942 3.26313 12.3706C3.26313 12.2049 3.19728 12.0459 3.08007 11.9287C2.96286 11.8115 2.80389 11.7456 2.63813 11.7456ZM4.86188 13.2244C4.73826 13.2244 4.61742 13.261 4.51464 13.3297C4.41186 13.3984 4.33176 13.496 4.28445 13.6102C4.23715 13.7244 4.22477 13.8501 4.24888 13.9713C4.273 14.0925 4.33253 14.2039 4.41993 14.2913C4.50734 14.3787 4.61871 14.4383 4.73994 14.4624C4.86118 14.4865 4.98685 14.4741 5.10105 14.4268C5.21526 14.3795 5.31287 14.2994 5.38154 14.1966C5.45022 14.0938 5.48688 13.973 5.48688 13.8494C5.48688 13.6836 5.42103 13.5246 5.30382 13.4074C5.18661 13.2902 5.02764 13.2244 4.86188 13.2244ZM13.8581 9.51C13.7345 9.51 13.6137 9.54666 13.5109 9.61533C13.4081 9.68401 13.328 9.78162 13.2807 9.89582C13.2334 10.01 13.221 10.1357 13.2451 10.2569C13.2692 10.3782 13.3288 10.4895 13.4162 10.5769C13.5036 10.6643 13.615 10.7239 13.7362 10.748C13.8574 10.7721 13.9831 10.7597 14.0973 10.7124C14.2115 10.6651 14.3091 10.585 14.3778 10.4822C14.4465 10.3795 14.4831 10.2586 14.4831 10.135C14.4831 10.0529 14.467 9.97165 14.4355 9.89582C14.4041 9.81999 14.3581 9.75109 14.3001 9.69306C14.242 9.63502 14.1731 9.58898 14.0973 9.55758C14.0215 9.52617 13.9402 9.51 13.8581 9.51ZM12.3619 11.7456C12.2383 11.7456 12.1174 11.7823 12.0146 11.851C11.9119 11.9196 11.8318 12.0172 11.7844 12.1314C11.7371 12.2457 11.7248 12.3713 11.7489 12.4926C11.773 12.6138 11.8325 12.7252 11.9199 12.8126C12.0073 12.9 12.1187 12.9595 12.2399 12.9836C12.3612 13.0077 12.4868 12.9954 12.6011 12.948C12.7153 12.9007 12.8129 12.8206 12.8815 12.7179C12.9502 12.6151 12.9869 12.4942 12.9869 12.3706C12.9869 12.2885 12.9707 12.2073 12.9393 12.1314C12.9079 12.0556 12.8619 11.9867 12.8038 11.9287C12.7458 11.8706 12.6769 11.8246 12.6011 11.7932C12.5252 11.7618 12.444 11.7456 12.3619 11.7456ZM10.1381 13.2244C10.0145 13.2244 9.89367 13.261 9.79089 13.3297C9.68811 13.3984 9.608 13.496 9.5607 13.6102C9.5134 13.7244 9.50102 13.8501 9.52513 13.9713C9.54925 14.0925 9.60878 14.2039 9.69618 14.2913C9.78359 14.3787 9.89496 14.4383 10.0162 14.4624C10.1374 14.4865 10.2631 14.4741 10.3773 14.4268C10.4915 14.3795 10.5891 14.2994 10.6578 14.1966C10.7265 14.0938 10.7631 13.973 10.7631 13.8494C10.7631 13.7673 10.747 13.686 10.7156 13.6102C10.6841 13.5344 10.6381 13.4655 10.5801 13.4074C10.522 13.3494 10.4531 13.3034 10.3773 13.272C10.3015 13.2405 10.2202 13.2244 10.1381 13.2244Z" fill="black"/>
</svg>
