<svg width="16" height="15" viewBox="0 0 16 15" fill="none" xmlns="http://www.w3.org/2000/svg">
<path d="M4.33008 0.916981L4.2168 0.175585H4.2168L4.33008 0.916981ZM8.7269 0.916982L8.84017 0.175586L8.7269 0.916982ZM8.50036 14.0763L8.36926 13.3379L8.50036 14.0763ZM4.55662 14.0763L4.68771 13.3379L4.68771 13.3379L4.55662 14.0763ZM1.53667 11.4758L0.820027 11.6969L1.53667 11.4758ZM0.869626 4.20473L1.61456 4.2918L0.869626 4.20473ZM12.2418 4.67019L12.9867 4.58313L12.2418 4.67019ZM11.6585 11.0281L10.9418 10.8069V10.8069L11.6585 11.0281ZM0.896799 3.97225L0.151869 3.88518L0.896799 3.97225ZM3.75591 1.00471L3.86918 1.7461H3.86918L3.75591 1.00471ZM4.45606 14.0585L4.32497 14.7969H4.32497L4.45606 14.0585ZM11.5505 11.3779L12.2671 11.5991V11.5991L11.5505 11.3779ZM12.1792 4.13525L11.4343 4.22231L12.1792 4.13525ZM9.13927 0.979988L9.02599 1.72138L9.13927 0.979988ZM12.5811 10.3542V9.60424V10.3542ZM14.9357 7.34313L14.2023 7.50029L14.2023 7.5003L14.9357 7.34313ZM14.9439 7.38178L15.6773 7.22462V7.22461L14.9439 7.38178ZM14.9439 8.44012L14.2106 8.28296V8.28296L14.9439 8.44012ZM12.6205 5.46767V4.71766V5.46767ZM11.8498 10.3542L11.1239 10.1657L11.8498 10.3542ZM12.3141 5.46767L11.5657 5.51607L12.3141 5.46767ZM12.1792 4.13525L11.4343 4.22231L11.4968 4.75726L12.2418 4.67019L12.9867 4.58313L12.9242 4.04818L12.1792 4.13525ZM11.6585 11.0281L10.9418 10.8069L10.8339 11.1568L11.5505 11.3779L12.2671 11.5991L12.3751 11.2492L11.6585 11.0281ZM0.869626 4.20473L1.61456 4.2918L1.64173 4.05931L0.896799 3.97225L0.151869 3.88518L0.124697 4.11767L0.869626 4.20473ZM4.55662 14.0763L4.68771 13.3379L4.58716 13.32L4.45606 14.0585L4.32497 14.7969L4.42552 14.8148L4.55662 14.0763ZM3.75591 1.00471L3.86918 1.7461L4.44335 1.65838L4.33008 0.916981L4.2168 0.175585L3.64263 0.263311L3.75591 1.00471ZM8.7269 0.916982L8.61362 1.65838L9.02599 1.72138L9.13927 0.979988L9.25254 0.238591L8.84017 0.175586L8.7269 0.916982ZM4.33008 0.916981L4.44335 1.65838C5.82547 1.44721 7.23151 1.44721 8.61362 1.65838L8.7269 0.916982L8.84017 0.175586C7.3079 -0.0585284 5.74908 -0.0585286 4.2168 0.175585L4.33008 0.916981ZM8.50036 14.0763L8.36926 13.3379C7.15155 13.554 5.90543 13.554 4.68771 13.3379L4.55662 14.0763L4.42552 14.8148C5.81668 15.0617 7.2403 15.0617 8.63146 14.8148L8.50036 14.0763ZM1.53667 11.4758L2.25332 11.2546C1.55862 9.00372 1.34104 6.63202 1.61456 4.2918L0.869626 4.20473L0.124697 4.11767C-0.173033 6.66504 0.0638025 9.24671 0.820027 11.6969L1.53667 11.4758ZM0.896799 3.97225L1.64173 4.05931C1.78053 2.87171 2.6935 1.92573 3.86918 1.7461L3.75591 1.00471L3.64263 0.263311C1.7968 0.545331 0.368802 2.02911 0.151869 3.88518L0.896799 3.97225ZM1.53667 11.4758L0.820027 11.6969C1.31658 13.3058 2.66873 14.5029 4.32497 14.7969L4.45606 14.0585L4.58716 13.32C3.48591 13.1245 2.58462 12.328 2.25332 11.2546L1.53667 11.4758ZM11.5505 11.3779L10.8339 11.1568C10.484 12.2903 9.53226 13.1314 8.36926 13.3379L8.50036 14.0763L8.63146 14.8148C10.3494 14.5098 11.7521 13.2681 12.2671 11.5991L11.5505 11.3779ZM12.1792 4.13525L12.9242 4.04818C12.696 2.09584 11.1939 0.535214 9.25254 0.238591L9.13927 0.979988L9.02599 1.72138C10.2972 1.91562 11.2842 2.93844 11.4343 4.22231L12.1792 4.13525ZM12.5811 10.3542V9.60424H12.2144V10.3542V11.1042H12.5811V10.3542ZM14.9357 7.34313L14.2023 7.5003L14.2106 7.53895L14.9439 7.38178L15.6773 7.22461L15.669 7.18596L14.9357 7.34313ZM14.9439 7.38178L14.2106 7.53895C14.2631 7.78415 14.2631 8.03776 14.2106 8.28296L14.9439 8.44012L15.6773 8.59729C15.7742 8.14489 15.7742 7.67702 15.6773 7.22462L14.9439 7.38178ZM12.5811 10.3542V11.1042C14.0751 11.1042 15.3641 10.0584 15.6773 8.59729L14.9439 8.44012L14.2106 8.28296C14.0451 9.05507 13.3652 9.60424 12.5811 9.60424V10.3542ZM12.6205 5.46767V6.21767C13.3816 6.21767 14.0417 6.75072 14.2023 7.50029L14.9357 7.34313L15.669 7.18596C15.3607 5.74738 14.0916 4.71766 12.6205 4.71766V5.46767ZM11.8498 10.3542L11.1239 10.1657C11.0681 10.3806 11.0074 10.5943 10.9418 10.8069L11.6585 11.0281L12.3751 11.2492C12.4474 11.015 12.5143 10.7795 12.5758 10.5427L11.8498 10.3542ZM12.2144 10.3542V9.60424H11.8498V10.3542V11.1042H12.2144V10.3542ZM12.2418 4.67019L11.4968 4.75726C11.5263 5.00986 11.5493 5.26288 11.5657 5.51607L12.3141 5.46767L13.0625 5.41926C13.0445 5.14027 13.0192 4.86146 12.9867 4.58313L12.2418 4.67019ZM12.3141 5.46767L11.5657 5.51607C11.6668 7.07946 11.5177 8.64926 11.1239 10.1657L11.8498 10.3542L12.5758 10.5427C13.0097 8.87168 13.174 7.14192 13.0625 5.41926L12.3141 5.46767ZM12.6205 5.46767V4.71766H12.3141V5.46767V6.21767H12.6205V5.46767Z" fill="#3376D0"/>
<path d="M3.375 7.125V7.69795C3.375 8.80083 3.63178 9.88856 4.125 10.875" stroke="#3376D0" stroke-width="1.5" stroke-linecap="round"/>
</svg>
