<svg width="13" height="13" viewBox="0 0 13 13" fill="none" xmlns="http://www.w3.org/2000/svg">
<path d="M13 6.5C13 6.64366 12.9429 6.78143 12.8414 6.88302C12.7398 6.9846 12.602 7.04167 12.4583 7.04167C12.3147 7.04167 12.1769 6.9846 12.0753 6.88302C11.9737 6.78143 11.9167 6.64366 11.9167 6.5C11.9151 5.06389 11.3439 3.68706 10.3284 2.67158C9.31294 1.6561 7.93611 1.08491 6.5 1.08333C6.35634 1.08333 6.21857 1.02627 6.11698 0.924683C6.0154 0.823101 5.95833 0.685326 5.95833 0.541667C5.95833 0.398008 6.0154 0.260233 6.11698 0.158651C6.21857 0.0570683 6.35634 0 6.5 0C8.22334 0.00186392 9.87555 0.687282 11.0941 1.90586C12.3127 3.12445 12.9981 4.77667 13 6.5ZM8.66667 7.04167C8.81033 7.04167 8.9481 6.9846 9.04968 6.88302C9.15127 6.78143 9.20833 6.64366 9.20833 6.5C9.20833 6.35634 9.15127 6.21857 9.04968 6.11698C8.9481 6.0154 8.81033 5.95833 8.66667 5.95833H7.43329C7.33889 5.79606 7.20394 5.66111 7.04167 5.56671V3.79167C7.04167 3.64801 6.9846 3.51023 6.88302 3.40865C6.78143 3.30707 6.64366 3.25 6.5 3.25C6.35634 3.25 6.21857 3.30707 6.11698 3.40865C6.0154 3.51023 5.95833 3.64801 5.95833 3.79167V5.56671C5.81467 5.64943 5.69197 5.76411 5.59975 5.90187C5.50753 6.03963 5.44826 6.19677 5.42652 6.36111C5.40479 6.52546 5.42118 6.69261 5.47442 6.8496C5.52766 7.0066 5.61632 7.14923 5.73355 7.26645C5.85077 7.38368 5.9934 7.47234 6.1504 7.52558C6.30739 7.57882 6.47454 7.59521 6.63889 7.57348C6.80323 7.55174 6.96037 7.49247 7.09813 7.40025C7.23589 7.30803 7.35057 7.18533 7.43329 7.04167H8.66667ZM0.989625 3.67467C0.882494 3.67467 0.777768 3.70643 0.688691 3.76595C0.599615 3.82547 0.530188 3.91007 0.489191 4.00905C0.448193 4.10802 0.437466 4.21693 0.458367 4.32201C0.479267 4.42708 0.530856 4.5236 0.606609 4.59935C0.682363 4.6751 0.778878 4.72669 0.883951 4.74759C0.989024 4.76849 1.09794 4.75777 1.19691 4.71677C1.29589 4.67577 1.38049 4.60634 1.44 4.51727C1.49952 4.42819 1.53129 4.32346 1.53129 4.21633C1.53129 4.07267 1.47422 3.9349 1.37264 3.83332C1.27106 3.73174 1.13328 3.67467 0.989625 3.67467ZM1.08333 6.5C1.08333 6.39287 1.05157 6.28814 0.992046 6.19907C0.932527 6.10999 0.84793 6.04056 0.748954 5.99957C0.649977 5.95857 0.541066 5.94784 0.435993 5.96874C0.33092 5.98964 0.234404 6.04123 0.158651 6.11698C0.0828973 6.19274 0.0313085 6.28925 0.0104082 6.39433C-0.0104921 6.4994 0.000234694 6.60831 0.0412322 6.70729C0.0822296 6.80626 0.151656 6.89086 0.240733 6.95038C0.32981 7.0099 0.434535 7.04167 0.541667 7.04167C0.685326 7.04167 0.823101 6.9846 0.924683 6.88302C1.02627 6.78143 1.08333 6.64366 1.08333 6.5ZM6.5 11.9167C6.39287 11.9167 6.28814 11.9484 6.19907 12.008C6.10999 12.0675 6.04056 12.1521 5.99957 12.251C5.95857 12.35 5.94784 12.4589 5.96874 12.564C5.98964 12.6691 6.04123 12.7656 6.11698 12.8414C6.19274 12.9171 6.28925 12.9687 6.39433 12.9896C6.4994 13.0105 6.60831 12.9998 6.70729 12.9588C6.80626 12.9178 6.89086 12.8483 6.95038 12.7593C7.0099 12.6702 7.04167 12.5655 7.04167 12.4583C7.04167 12.3147 6.9846 12.1769 6.88302 12.0753C6.78143 11.9737 6.64366 11.9167 6.5 11.9167ZM2.28638 1.73713C2.17924 1.73713 2.07452 1.76889 1.98544 1.82841C1.89636 1.88793 1.82694 1.97253 1.78594 2.0715C1.74494 2.17048 1.73422 2.27939 1.75512 2.38447C1.77602 2.48954 1.82761 2.58605 1.90336 2.66181C1.97911 2.73756 2.07563 2.78915 2.1807 2.81005C2.28577 2.83095 2.39469 2.82022 2.49366 2.77923C2.59264 2.73823 2.67724 2.6688 2.73675 2.57973C2.79627 2.49065 2.82804 2.38592 2.82804 2.27879C2.82804 2.13513 2.77097 1.99736 2.66939 1.89578C2.56781 1.79419 2.43003 1.73713 2.28638 1.73713ZM4.21363 0.455542C4.10649 0.455542 4.00177 0.48731 3.91269 0.546829C3.82361 0.606348 3.75419 0.690945 3.71319 0.789922C3.67219 0.888898 3.66147 0.997809 3.68237 1.10288C3.70327 1.20796 3.75486 1.30447 3.83061 1.38022C3.90636 1.45598 4.00288 1.50757 4.10795 1.52847C4.21302 1.54937 4.32194 1.53864 4.42091 1.49764C4.51989 1.45665 4.60449 1.38722 4.664 1.29814C4.72352 1.20907 4.75529 1.10434 4.75529 0.997208C4.75529 0.853549 4.69822 0.715774 4.59664 0.614192C4.49506 0.51261 4.35728 0.455542 4.21363 0.455542ZM0.989625 8.242C0.882494 8.242 0.777768 8.27377 0.688691 8.33329C0.599615 8.39281 0.530188 8.4774 0.489191 8.57638C0.448193 8.67536 0.437466 8.78427 0.458367 8.88934C0.479267 8.99441 0.530856 9.09093 0.606609 9.16668C0.682363 9.24244 0.778878 9.29403 0.883951 9.31493C0.989024 9.33583 1.09794 9.3251 1.19691 9.2841C1.29589 9.2431 1.38049 9.17368 1.44 9.0846C1.49952 8.99552 1.53129 8.8908 1.53129 8.78367C1.53129 8.64001 1.47422 8.50223 1.37264 8.40065C1.27106 8.29907 1.13328 8.242 0.989625 8.242ZM2.28638 10.1795C2.17924 10.1795 2.07452 10.2113 1.98544 10.2708C1.89636 10.3303 1.82694 10.4149 1.78594 10.5139C1.74494 10.6129 1.73422 10.7218 1.75512 10.8269C1.77602 10.932 1.82761 11.0285 1.90336 11.1042C1.97911 11.18 2.07563 11.2316 2.1807 11.2525C2.28577 11.2734 2.39469 11.2626 2.49366 11.2216C2.59264 11.1806 2.67724 11.1112 2.73675 11.0221C2.79627 10.9331 2.82804 10.8283 2.82804 10.7212C2.82804 10.5775 2.77097 10.4398 2.66939 10.3382C2.56781 10.2366 2.43003 10.1795 2.28638 10.1795ZM4.21363 11.4611C4.10649 11.4611 4.00177 11.4929 3.91269 11.5524C3.82361 11.6119 3.75419 11.6965 3.71319 11.7955C3.67219 11.8945 3.66147 12.0034 3.68237 12.1085C3.70327 12.2135 3.75486 12.3101 3.83061 12.3858C3.90636 12.4616 4.00288 12.5132 4.10795 12.5341C4.21302 12.555 4.32194 12.5442 4.42091 12.5032C4.51989 12.4622 4.60449 12.3928 4.664 12.3037C4.72352 12.2147 4.75529 12.1099 4.75529 12.0028C4.75529 11.8591 4.69822 11.7214 4.59664 11.6198C4.49506 11.5182 4.35728 11.4611 4.21363 11.4611ZM12.0104 8.242C11.9032 8.242 11.7985 8.27377 11.7094 8.33329C11.6204 8.39281 11.5509 8.4774 11.5099 8.57638C11.4689 8.67536 11.4582 8.78427 11.4791 8.88934C11.5 8.99441 11.5516 9.09093 11.6274 9.16668C11.7031 9.24244 11.7996 9.29403 11.9047 9.31493C12.0098 9.33583 12.1187 9.3251 12.2177 9.2841C12.3166 9.2431 12.4012 9.17368 12.4608 9.0846C12.5203 8.99552 12.552 8.8908 12.552 8.78367C12.552 8.71253 12.538 8.6421 12.5108 8.57638C12.4836 8.51066 12.4437 8.45095 12.3934 8.40065C12.3431 8.35035 12.2834 8.31045 12.2177 8.28323C12.1519 8.25601 12.0815 8.242 12.0104 8.242ZM10.7136 10.1795C10.6065 10.1795 10.5018 10.2113 10.4127 10.2708C10.3236 10.3303 10.2542 10.4149 10.2132 10.5139C10.1722 10.6129 10.1615 10.7218 10.1824 10.8269C10.2033 10.932 10.2549 11.0285 10.3306 11.1042C10.4064 11.18 10.5029 11.2316 10.608 11.2525C10.713 11.2734 10.8219 11.2626 10.9209 11.2216C11.0199 11.1806 11.1045 11.1112 11.164 11.0221C11.2235 10.9331 11.2553 10.8283 11.2553 10.7212C11.2553 10.6501 11.2413 10.5796 11.2141 10.5139C11.1868 10.4482 11.1469 10.3885 11.0966 10.3382C11.0463 10.2879 10.9866 10.248 10.9209 10.2208C10.8552 10.1936 10.7848 10.1795 10.7136 10.1795ZM8.78638 11.4611C8.67924 11.4611 8.57452 11.4929 8.48544 11.5524C8.39637 11.6119 8.32694 11.6965 8.28594 11.7955C8.24494 11.8945 8.23422 12.0034 8.25512 12.1085C8.27602 12.2135 8.32761 12.3101 8.40336 12.3858C8.47911 12.4616 8.57563 12.5132 8.6807 12.5341C8.78577 12.555 8.89469 12.5442 8.99366 12.5032C9.09264 12.4622 9.17724 12.3928 9.23675 12.3037C9.29627 12.2147 9.32804 12.1099 9.32804 12.0028C9.32804 11.9317 9.31403 11.8612 9.28681 11.7955C9.25959 11.7298 9.21969 11.6701 9.16939 11.6198C9.11909 11.5695 9.05938 11.5296 8.99366 11.5024C8.92794 11.4751 8.85751 11.4611 8.78638 11.4611Z" fill="#DC6A72"/>
</svg>
